<?xml version="1.0" encoding="UTF-8" standalone="no"?><!DOCTYPE svg PUBLIC "-//W3C//DTD SVG 1.1//EN" "http://www.w3.org/Graphics/SVG/1.1/DTD/svg11.dtd"><svg width="100%" height="100%" viewBox="0 0 159 125" version="1.1" xmlns="http://www.w3.org/2000/svg" xmlns:xlink="http://www.w3.org/1999/xlink" xml:space="preserve" xmlns:serif="http://www.serif.com/" style="fill-rule:evenodd;clip-rule:evenodd;stroke-linejoin:round;stroke-miterlimit:2;"><path d="M147.421,101.533c-0,6.58 -5.35,11.934 -11.929,11.934l-112.63,-0c-6.583,-0 -11.933,-5.354 -11.933,-11.934l0,-78.675c0,-1.6 0.321,-3.125 0.896,-4.52l47.642,54.054c4.983,5.654 12.17,8.904 19.708,8.904c7.542,-0 14.725,-3.25 19.713,-8.904l47.637,-54.054c0.575,1.395 0.896,2.92 0.896,4.52l-0,78.675Zm-11.929,-90.604c0.933,0 1.837,0.117 2.712,0.321l-47.512,53.917c-2.913,3.304 -7.113,5.2 -11.517,5.2c-4.404,-0 -8.6,-1.896 -11.513,-5.2l-47.516,-53.917c0.875,-0.204 1.783,-0.321 2.716,-0.321l112.63,0Zm-0,-10.929l-112.63,0c-12.608,0 -22.862,10.254 -22.862,22.858l0,78.675c0,12.609 10.254,22.859 22.862,22.859l112.63,-0c12.604,-0 22.858,-10.25 22.858,-22.859l-0,-78.675c-0,-12.604 -10.254,-22.858 -22.858,-22.858Z" style="fill-rule:nonzero;"/></svg>