<?xml version="1.0" encoding="UTF-8" standalone="no"?><!DOCTYPE svg PUBLIC "-//W3C//DTD SVG 1.1//EN" "http://www.w3.org/Graphics/SVG/1.1/DTD/svg11.dtd"><svg width="100%" height="100%" viewBox="0 0 148 148" version="1.1" xmlns="http://www.w3.org/2000/svg" xmlns:xlink="http://www.w3.org/1999/xlink" xml:space="preserve" xmlns:serif="http://www.serif.com/" style="fill-rule:evenodd;clip-rule:evenodd;stroke-linejoin:round;stroke-miterlimit:2;"><g id="instagramdark"><path d="M147.425,73.712c-0,40.709 -33.004,73.713 -73.709,73.713c-40.712,-0 -73.716,-33.004 -73.716,-73.713c0,-40.712 33.004,-73.712 73.716,-73.712c40.705,0 73.709,33 73.709,73.712Z" style="fill-rule:nonzero;"/><path d="M96.596,45.825c-2.8,-0 -5.067,2.271 -5.067,5.067c0,2.8 2.267,5.066 5.067,5.066c2.8,0 5.066,-2.266 5.066,-5.066c0,-2.796 -2.266,-5.067 -5.066,-5.067Z" style="fill:#fff;fill-rule:nonzero;"/><path d="M74.071,87.242c-7.521,-0 -13.638,-6.117 -13.638,-13.634c0,-7.516 6.117,-13.633 13.638,-13.633c7.516,-0 13.629,6.117 13.629,13.633c-0,7.517 -6.113,13.634 -13.629,13.634Zm-0,-34.917c-11.738,-0 -21.288,9.546 -21.288,21.283c0,11.738 9.55,21.284 21.288,21.284c11.733,-0 21.283,-9.546 21.283,-21.284c-0,-11.737 -9.55,-21.283 -21.283,-21.283Z" style="fill:#fff;fill-rule:nonzero;"/><path d="M56.458,38.525c-9.829,0 -17.825,7.996 -17.825,17.829l0,34.508c0,9.83 7.996,17.83 17.825,17.83l34.509,-0c9.833,-0 17.833,-8 17.833,-17.83l-0,-34.508c-0,-9.833 -8,-17.829 -17.833,-17.829l-34.509,0Zm34.509,78.296l-34.509,-0c-14.312,-0 -25.958,-11.646 -25.958,-25.959l-0,-34.508c-0,-14.312 11.646,-25.958 25.958,-25.958l34.509,-0c14.312,-0 25.962,11.646 25.962,25.958l0,34.508c0,14.313 -11.65,25.959 -25.962,25.959Z" style="fill:#fff;fill-rule:nonzero;"/></g></svg>