<?xml version="1.0" encoding="UTF-8" standalone="no"?><!DOCTYPE svg PUBLIC "-//W3C//DTD SVG 1.1//EN" "http://www.w3.org/Graphics/SVG/1.1/DTD/svg11.dtd"><svg width="100%" height="100%" viewBox="0 0 148 148" version="1.1" xmlns="http://www.w3.org/2000/svg" xmlns:xlink="http://www.w3.org/1999/xlink" xml:space="preserve" xmlns:serif="http://www.serif.com/" style="fill-rule:evenodd;clip-rule:evenodd;stroke-linejoin:round;stroke-miterlimit:2;"><g id="instagram"><path d="M112.742,26.321c-4.775,-0 -8.646,3.871 -8.646,8.641c-0,4.775 3.871,8.646 8.646,8.646c4.771,0 8.641,-3.871 8.641,-8.646c0,-4.77 -3.87,-8.641 -8.641,-8.641Z" style="fill-rule:nonzero;"/><path d="M74.317,96.967c-12.825,-0 -23.259,-10.434 -23.259,-23.254c0,-12.825 10.434,-23.259 23.259,-23.259c12.82,0 23.254,10.434 23.254,23.259c-0,12.82 -10.434,23.254 -23.254,23.254Zm-0,-59.563c-20.021,0 -36.309,16.288 -36.309,36.309c0,20.016 16.288,36.304 36.309,36.304c20.016,-0 36.304,-16.288 36.304,-36.304c-0,-20.021 -16.288,-36.309 -36.304,-36.309Z" style="fill-rule:nonzero;"/><path d="M44.279,13.871c-16.771,-0 -30.412,13.641 -30.412,30.412l-0,58.859c-0,16.77 13.641,30.412 30.412,30.412l58.858,0c16.771,0 30.417,-13.642 30.417,-30.412l0,-58.859c0,-16.771 -13.646,-30.412 -30.417,-30.412l-58.858,-0Zm58.858,133.554l-58.858,-0c-24.421,-0 -44.279,-19.867 -44.279,-44.283l0,-58.859c0,-24.421 19.858,-44.283 44.279,-44.283l58.858,0c24.417,0 44.284,19.862 44.284,44.283l-0,58.859c-0,24.416 -19.867,44.283 -44.284,44.283Z" style="fill-rule:nonzero;"/></g></svg>