<?xml version="1.0" encoding="UTF-8" standalone="no"?><!DOCTYPE svg PUBLIC "-//W3C//DTD SVG 1.1//EN" "http://www.w3.org/Graphics/SVG/1.1/DTD/svg11.dtd"><svg width="100%" height="100%" viewBox="0 0 184 138" version="1.1" xmlns="http://www.w3.org/2000/svg" xmlns:xlink="http://www.w3.org/1999/xlink" xml:space="preserve" xmlns:serif="http://www.serif.com/" style="fill-rule:evenodd;clip-rule:evenodd;stroke-linejoin:round;stroke-miterlimit:2;"><g id="Money"><rect x="37.5" y="112.5" width="20.833" height="8.333"/><rect x="20.833" y="83.333" width="20.833" height="8.333"/><rect x="129.167" y="16.667" width="20.833" height="8.333"/><path d="M175,129.167l-150,-0l0,-20.834l141.667,0l-0,-50l4.166,0l0,-8.333l-4.166,0l-0,-12.5l8.333,0l0,91.667Zm-166.667,-29.167l0,-91.667l150,0l0,91.667l-150,0Zm158.334,-70.833l-0,-29.167l-166.667,-0l0,108.333l16.667,0l-0,29.167l166.666,0l0,-108.333l-16.666,-0Z" style="fill-rule:nonzero;"/><path d="M77.5,37.5c-5.975,-0 -10.833,4.862 -10.833,10.833l0,11.667c0,5.971 4.858,10.833 10.833,10.833l11.667,0c5.971,0 10.833,-4.862 10.833,-10.833l0,-11.667c0,-5.971 -4.862,-10.833 -10.833,-10.833l-11.667,-0Zm11.667,41.667l-11.667,-0c-10.57,-0 -19.166,-8.596 -19.166,-19.167l-0,-11.667c-0,-10.571 8.596,-19.166 19.166,-19.166l11.667,-0c10.567,-0 19.167,8.595 19.167,19.166l-0,11.667c-0,10.571 -8.6,19.167 -19.167,19.167" style="fill-rule:nonzero;"/></g></svg>