<?xml version="1.0" encoding="UTF-8" standalone="no"?><!DOCTYPE svg PUBLIC "-//W3C//DTD SVG 1.1//EN" "http://www.w3.org/Graphics/SVG/1.1/DTD/svg11.dtd"><svg width="100%" height="100%" viewBox="0 0 180 148" version="1.1" xmlns="http://www.w3.org/2000/svg" xmlns:xlink="http://www.w3.org/1999/xlink" xml:space="preserve" xmlns:serif="http://www.serif.com/" style="fill-rule:evenodd;clip-rule:evenodd;stroke-linejoin:round;stroke-miterlimit:2;"><path id="twitter" d="M178.381,17.671c-5.692,2.575 -11.979,4.134 -18.117,5.163c2.913,-0.488 7.192,-5.763 8.909,-7.896c2.616,-3.25 4.787,-6.959 6.008,-10.963c0.159,-0.312 0.279,-0.704 -0.037,-0.941c-0.392,-0.155 -0.646,-0.075 -0.959,0.079c-6.854,3.671 -13.937,6.333 -21.479,8.221c-0.625,0.154 -1.092,-0 -1.483,-0.396c-0.621,-0.704 -1.213,-1.371 -1.875,-1.917c-3.171,-2.696 -6.571,-4.812 -10.405,-6.375c-5.033,-2.05 -10.533,-2.921 -15.954,-2.571c-5.279,0.346 -10.458,1.83 -15.137,4.275c-4.692,2.45 -8.879,5.863 -12.217,9.975c-3.446,4.259 -5.987,9.279 -7.291,14.609c-1.25,5.141 -1.15,10.225 -0.384,15.421c0.117,0.862 0.038,0.979 -0.742,0.862c-29.495,-4.392 -53.945,-14.942 -73.795,-37.562c-0.863,-0.984 -1.329,-0.984 -2.034,0.075c-8.687,13.02 -4.474,33.933 6.375,44.212c1.45,1.375 2.934,2.742 4.538,3.992c-0.588,0.121 -7.804,-0.659 -14.242,-3.992c-0.858,-0.546 -1.296,-0.229 -1.371,0.746c-0.079,1.408 0.042,2.704 0.234,4.229c1.666,13.196 10.808,25.4 23.325,30.167c1.483,0.625 3.129,1.171 4.729,1.445c-2.85,0.626 -5.788,1.071 -13.967,0.43c-1.016,-0.192 -1.404,0.316 -1.016,1.296c6.15,16.745 19.408,21.733 29.345,24.57c1.33,0.234 2.663,0.234 3.996,0.546c-0.083,0.121 -0.162,0.121 -0.242,0.238c-3.291,5.021 -14.716,8.758 -20.037,10.616c-9.675,3.384 -20.212,4.904 -30.437,3.896c-1.634,-0.241 -1.98,-0.221 -2.421,0c-0.45,0.279 -0.063,0.671 0.467,1.096c2.074,1.371 4.187,2.583 6.341,3.758c6.492,3.442 13.263,6.184 20.346,8.138c36.562,10.096 77.746,2.675 105.2,-24.6c21.558,-21.421 29.117,-50.963 29.117,-80.538c-0,-1.158 1.366,-1.795 2.175,-2.408c5.612,-4.213 10.137,-9.258 14.32,-14.887c0.942,-1.267 0.95,-2.392 0.95,-2.855l0,-0.154c0,-0.475 -0.008,-0.329 -0.733,0Z" style="fill-rule:nonzero;"/></svg>