<?xml version="1.0" encoding="UTF-8" standalone="no"?><!DOCTYPE svg PUBLIC "-//W3C//DTD SVG 1.1//EN" "http://www.w3.org/Graphics/SVG/1.1/DTD/svg11.dtd"><svg width="100%" height="100%" viewBox="0 0 148 148" version="1.1" xmlns="http://www.w3.org/2000/svg" xmlns:xlink="http://www.w3.org/1999/xlink" xml:space="preserve" xmlns:serif="http://www.serif.com/" style="fill-rule:evenodd;clip-rule:evenodd;stroke-linejoin:round;stroke-miterlimit:2;"><g id="twitterdark"><path d="M147.425,73.713c-0,40.708 -33.004,73.712 -73.709,73.712c-40.712,0 -73.716,-33.004 -73.716,-73.712c0,-40.713 33.004,-73.713 73.716,-73.713c40.705,0 73.709,33 73.709,73.713Z" style="fill-rule:nonzero;"/><path d="M114.442,48.454c-2.555,1.154 -5.38,1.854 -8.13,2.317c1.309,-0.217 3.23,-2.583 3.996,-3.542c1.175,-1.462 2.15,-3.125 2.7,-4.921c0.067,-0.141 0.121,-0.316 -0.016,-0.425c-0.18,-0.07 -0.296,-0.033 -0.434,0.038c-3.075,1.646 -6.254,2.842 -9.637,3.687c-0.284,0.071 -0.492,0 -0.671,-0.175c-0.275,-0.316 -0.538,-0.616 -0.842,-0.862c-1.416,-1.213 -2.946,-2.158 -4.667,-2.863c-2.262,-0.92 -4.729,-1.308 -7.162,-1.15c-2.367,0.155 -4.692,0.821 -6.792,1.917c-2.108,1.1 -3.983,2.629 -5.483,4.479c-1.546,1.909 -2.688,4.163 -3.275,6.554c-0.563,2.309 -0.516,4.592 -0.171,6.921c0.054,0.388 0.017,0.442 -0.333,0.388c-13.242,-1.971 -24.217,-6.705 -33.121,-16.859c-0.387,-0.441 -0.6,-0.441 -0.917,0.034c-3.9,5.845 -2.004,15.233 2.867,19.845c0.65,0.617 1.317,1.23 2.033,1.792c-0.262,0.054 -3.504,-0.3 -6.387,-1.792c-0.392,-0.245 -0.583,-0.104 -0.621,0.334c-0.033,0.633 0.021,1.212 0.108,1.9c0.746,5.921 4.85,11.4 10.467,13.537c0.667,0.284 1.404,0.53 2.125,0.65c-1.283,0.28 -2.6,0.484 -6.271,0.192c-0.454,-0.087 -0.629,0.142 -0.454,0.579c2.758,7.521 8.713,9.759 13.171,11.029c0.591,0.109 1.192,0.109 1.792,0.246c-0.038,0.054 -0.071,0.054 -0.109,0.104c-1.475,2.259 -6.604,3.938 -8.992,4.771c-4.345,1.517 -9.074,2.2 -13.662,1.746c-0.733,-0.104 -0.888,-0.1 -1.087,0c-0.205,0.125 -0.025,0.304 0.212,0.492c0.929,0.616 1.875,1.158 2.842,1.687c2.916,1.546 5.954,2.775 9.133,3.654c16.408,4.534 34.896,1.2 47.221,-11.041c9.675,-9.617 13.062,-22.875 13.062,-36.15c0,-0.517 0.617,-0.804 0.984,-1.079c2.517,-1.892 4.55,-4.155 6.425,-6.684c0.42,-0.566 0.425,-1.071 0.425,-1.279l-0,-0.071c-0,-0.212 -0.005,-0.146 -0.329,0Z" style="fill:#fff;fill-rule:nonzero;"/></g></svg>