<?xml version="1.0" encoding="UTF-8" standalone="no"?><!DOCTYPE svg PUBLIC "-//W3C//DTD SVG 1.1//EN" "http://www.w3.org/Graphics/SVG/1.1/DTD/svg11.dtd"><svg width="100%" height="100%" viewBox="0 0 148 148" version="1.1" xmlns="http://www.w3.org/2000/svg" xmlns:xlink="http://www.w3.org/1999/xlink" xml:space="preserve" xmlns:serif="http://www.serif.com/" style="fill-rule:evenodd;clip-rule:evenodd;stroke-linejoin:round;stroke-miterlimit:2;"><g id="whatsappdark"><path d="M147.425,73.713c-0,40.708 -33.004,73.712 -73.709,73.712c-40.712,-0 -73.716,-33.004 -73.716,-73.712c0,-40.709 33.004,-73.713 73.716,-73.713c40.705,0 73.709,33.004 73.709,73.713Z" style="fill-rule:nonzero;"/><path d="M58.083,100.658l1.455,0.867c5.329,3.171 11.387,4.854 17.529,4.854c18.933,0 34.333,-15.404 34.333,-34.341c-0,-18.934 -15.4,-34.334 -34.333,-34.334c-18.934,0 -34.342,15.4 -34.342,34.334c-0,6.254 1.737,12.412 5.021,17.808l0.891,1.458l-3.429,12.804l12.875,-3.45Zm-24.196,14.771l6.15,-22.933c-3.483,-6.279 -5.316,-13.317 -5.316,-20.458c-0,-23.342 18.996,-42.338 42.346,-42.338c23.341,-0 42.337,18.996 42.337,42.338c0,23.349 -18.996,42.345 -42.337,42.345c-7.013,0 -13.934,-1.77 -20.13,-5.133l-23.05,6.179Z" style="fill:#fff;fill-rule:nonzero;"/><path d="M92.812,77.929c-1.741,-1.041 -4.008,-2.208 -6.062,-1.366c-1.575,0.645 -2.579,3.108 -3.6,4.37c-0.521,0.642 -1.15,0.746 -1.954,0.425c-5.913,-2.358 -10.442,-6.304 -13.704,-11.745c-0.554,-0.842 -0.455,-1.509 0.208,-2.292c0.992,-1.163 2.229,-2.479 2.491,-4.042c0.271,-1.562 -0.466,-3.396 -1.108,-4.787c-0.829,-1.775 -1.75,-4.317 -3.533,-5.321c-1.642,-0.929 -3.8,-0.408 -5.258,0.783c-2.517,2.05 -3.734,5.263 -3.7,8.45c0.008,0.908 0.125,1.809 0.337,2.679c0.508,2.105 1.475,4.067 2.571,5.934c0.825,1.408 1.721,2.77 2.683,4.087c3.167,4.296 7.096,8.029 11.654,10.817c2.275,1.396 4.729,2.617 7.267,3.458c2.846,0.938 5.383,1.917 8.458,1.338c3.221,-0.617 6.392,-2.604 7.667,-5.709c0.379,-0.916 0.571,-1.941 0.358,-2.912c-0.437,-2.004 -3.15,-3.196 -4.775,-4.167Z" style="fill:#fff;"/></g></svg>