<?xml version="1.0" encoding="UTF-8" standalone="no"?><!DOCTYPE svg PUBLIC "-//W3C//DTD SVG 1.1//EN" "http://www.w3.org/Graphics/SVG/1.1/DTD/svg11.dtd"><svg width="100%" height="100%" viewBox="0 0 148 148" version="1.1" xmlns="http://www.w3.org/2000/svg" xmlns:xlink="http://www.w3.org/1999/xlink" xml:space="preserve" xmlns:serif="http://www.serif.com/" style="fill-rule:evenodd;clip-rule:evenodd;stroke-linejoin:round;stroke-miterlimit:2;"><g><path d="M41.608,122.029l2.496,1.488c9.163,5.458 19.588,8.346 30.142,8.346c32.562,-0 59.05,-26.488 59.05,-59.05c-0,-32.559 -26.488,-59.05 -59.05,-59.05c-32.554,-0 -59.05,26.491 -59.05,59.05c-0,10.75 2.987,21.337 8.642,30.616l1.529,2.513l-5.9,22.021l22.141,-5.934Zm-41.608,25.392l10.567,-39.429c-5.984,-10.8 -9.129,-22.896 -9.129,-35.179c-0,-40.146 32.658,-72.813 72.808,-72.813c40.15,0 72.817,32.667 72.817,72.813c-0,40.15 -32.667,72.816 -72.817,72.816c-12.05,0 -23.954,-3.046 -34.608,-8.821l-39.638,10.613Z" style="fill-rule:nonzero;"/><path d="M101.333,82.942c-3,-1.796 -6.895,-3.796 -10.429,-2.354c-2.704,1.112 -4.433,5.354 -6.192,7.516c-0.9,1.113 -1.975,1.284 -3.358,0.729c-10.166,-4.054 -17.958,-10.841 -23.57,-20.191c-0.951,-1.454 -0.78,-2.6 0.366,-3.946c1.696,-1.996 3.825,-4.263 4.283,-6.954c0.459,-2.688 -0.804,-5.83 -1.916,-8.229c-1.421,-3.059 -3.009,-7.421 -6.075,-9.155c-2.817,-1.591 -6.529,-0.7 -9.038,1.342c-4.333,3.533 -6.425,9.058 -6.362,14.542c0.021,1.558 0.212,3.112 0.575,4.612c0.875,3.613 2.542,6.992 4.425,10.196c1.416,2.421 2.958,4.771 4.621,7.029c5.437,7.388 12.204,13.809 20.037,18.609c3.917,2.395 8.129,4.5 12.496,5.941c4.896,1.617 9.258,3.3 14.546,2.296c5.533,-1.05 10.996,-4.475 13.192,-9.808c0.65,-1.584 0.974,-3.342 0.612,-5.009c-0.754,-3.45 -5.421,-5.5 -8.213,-7.166Z"/></g></svg>